<?xml version="1.0" encoding="UTF-8"?>
<!DOCTYPE svg PUBLIC "-//W3C//DTD SVG 1.1//EN" "http://www.w3.org/Graphics/SVG/1.1/DTD/svg11.dtd">
<!-- Creator: CorelDRAW -->
<svg xmlns="http://www.w3.org/2000/svg" xml:space="preserve" width="170.249mm" height="25.9116mm" version="1.1" shape-rendering="geometricPrecision" text-rendering="geometricPrecision" image-rendering="optimizeQuality" fill-rule="evenodd" clip-rule="evenodd"
viewBox="0 0 17009.59 2588.83"
 xmlns:xlink="http://www.w3.org/1999/xlink"
 xmlns:xodm="http://www.corel.com/coreldraw/odm/2003">
 <g id="Capa_x0020_1">
  <metadata id="CorelCorpID_0Corel-Layer"/>
  <g id="_2195275314656">
   <path fill="none" fill-rule="nonzero" stroke="black" stroke-width="120.68" stroke-miterlimit="22.9256" d="M449.17 2442.5l-358.64 0 952.86 -2285.46 949.34 2285.46 -355.13 0 -594.21 -1416.98 -594.22 1416.98zm3376.74 -1923.31c-206.28,0 -382.09,76.19 -527.41,228.55 -145.34,152.36 -218,335.2 -218,548.51 0,215.66 72.66,400.84 218,555.54 145.33,154.71 321.13,232.07 527.41,232.07 119.54,0 234.99,-30.47 346.33,-91.43 111.35,-60.95 203.35,-145.33 276.01,-253.15l80.88 -116.04 -397.32 -348.09 235.58 -270.75 559.06 488.74c-77.35,285.97 -216.24,515.7 -416.65,689.15 -200.42,173.46 -428.37,260.2 -683.87,260.2 -304.74,0 -564.92,-111.93 -780.58,-335.79 -215.66,-223.86 -323.48,-494.01 -323.48,-810.46 0,-314.11 107.82,-582.5 323.48,-805.18 215.66,-222.69 475.84,-334.03 780.58,-334.03 215.65,0 416.07,59.78 601.25,179.32l-242.61 274.26c-107.82,-60.95 -227.38,-91.43 -358.64,-91.43zm2427.38 -3.51l0 604.77 741.89 0 0 358.64 -741.89 0 0 604.78 1044.28 0 0 358.64 -1402.93 0 0 -2285.46 1402.93 0 0 358.65 -1044.28 0zm3745.91 1923.3l-1311.5 -1364.24 0 1367.76 -358.65 0 0 -2285.46 1311.51 1374.79 0 -1374.79 358.64 0 0 2281.94zm2139.07 -1919.79c-206.28,0 -382.09,76.19 -527.41,228.55 -145.34,152.36 -218,335.2 -218,548.51 0,218 72.66,403.77 218,557.3 145.33,153.54 321.13,230.31 527.41,230.31 128.92,0 248.47,-31.65 358.64,-94.93l242.61 274.25c-180.5,119.54 -380.91,179.32 -601.25,179.32 -304.74,0 -564.92,-111.34 -780.58,-334.03 -215.66,-222.69 -323.48,-491.08 -323.48,-805.18 0,-316.44 107.82,-586.6 323.48,-810.46 215.66,-223.86 475.84,-335.79 780.58,-335.79 220.34,0 420.75,59.78 601.25,179.32l-242.61 277.77c-105.48,-63.28 -225.03,-94.93 -358.64,-94.93z"/>
   <g>
    <path fill="none" fill-rule="nonzero" stroke="black" stroke-width="120.68" stroke-miterlimit="22.9256" d="M13718.27 2442.5l0 -2285.46 358.65 0 0 2285.46 -358.65 0zm1657.36 0l-358.64 0 952.86 -2285.46 949.34 2285.46 -355.13 0 -594.21 -1416.98 -594.22 1416.98z"/>
    <path id="_1" fill="black" fill-rule="nonzero" d="M13718.27 2442.5l0 -2285.46 358.65 0 0 2285.46 -358.65 0zm1657.36 0l-358.64 0 952.86 -2285.46 949.34 2285.46 -355.13 0 -594.21 -1416.98 -594.22 1416.98z"/>
   </g>
  </g>
 </g>
</svg>
