<?xml version="1.0" encoding="UTF-8"?>
<!DOCTYPE svg PUBLIC "-//W3C//DTD SVG 1.1//EN" "http://www.w3.org/Graphics/SVG/1.1/DTD/svg11.dtd">
<!-- Creator: CorelDRAW -->
<svg xmlns="http://www.w3.org/2000/svg" xml:space="preserve" width="170.249mm" height="25.9116mm" version="1.1" shape-rendering="geometricPrecision" text-rendering="geometricPrecision" image-rendering="optimizeQuality" fill-rule="evenodd" clip-rule="evenodd"
viewBox="0 0 17009.59 2588.83"
 xmlns:xlink="http://www.w3.org/1999/xlink"
 xmlns:xodm="http://www.corel.com/coreldraw/odm/2003">
 <g id="Capa_x0020_1">
  <metadata id="CorelCorpID_0Corel-Layer"/>
  <polygon fill="none" fill-rule="nonzero" points="449.17,2442.5 90.53,2442.5 1043.39,157.04 1992.73,2442.5 1637.6,2442.5 1043.39,1025.52 "/>
  <path id="_1" fill="none" fill-rule="nonzero" d="M3825.9 519.19c-206.28,0 -382.09,76.19 -527.41,228.55 -145.34,152.36 -218,335.2 -218,548.51 0,215.66 72.66,400.84 218,555.54 145.33,154.71 321.13,232.07 527.41,232.07 119.54,0 234.99,-30.47 346.33,-91.43 111.35,-60.95 203.35,-145.33 276.01,-253.15l80.88 -116.04 -397.32 -348.09 235.58 -270.75 559.06 488.74c-77.35,285.97 -216.24,515.7 -416.65,689.15 -200.42,173.46 -428.37,260.2 -683.87,260.2 -304.74,0 -564.92,-111.93 -780.58,-335.79 -215.66,-223.86 -323.48,-494.01 -323.48,-810.46 0,-314.11 107.82,-582.5 323.48,-805.18 215.66,-222.69 475.84,-334.03 780.58,-334.03 215.65,0 416.07,59.78 601.25,179.32l-242.61 274.26c-107.82,-60.95 -227.38,-91.43 -358.64,-91.43z"/>
  <polygon id="_2" fill="none" fill-rule="nonzero" points="6253.29,515.69 6253.29,1120.45 6995.18,1120.45 6995.18,1479.09 6253.29,1479.09 6253.29,2083.86 7297.56,2083.86 7297.56,2442.5 5894.64,2442.5 5894.64,157.04 7297.56,157.04 7297.56,515.69 "/>
  <polygon id="_3" fill="none" fill-rule="nonzero" points="9999.2,2438.98 8687.7,1074.74 8687.7,2442.5 8329.06,2442.5 8329.06,157.04 9640.56,1531.83 9640.56,157.04 9999.2,157.04 "/>
  <path id="_4" fill="none" fill-rule="nonzero" d="M12138.27 519.19c-206.28,0 -382.09,76.19 -527.41,228.55 -145.34,152.36 -218,335.2 -218,548.51 0,218 72.66,403.77 218,557.3 145.33,153.54 321.13,230.31 527.41,230.31 128.92,0 248.47,-31.65 358.64,-94.93l242.61 274.25c-180.5,119.54 -380.91,179.32 -601.25,179.32 -304.74,0 -564.92,-111.34 -780.58,-334.03 -215.66,-222.69 -323.48,-491.08 -323.48,-805.18 0,-316.44 107.82,-586.6 323.48,-810.46 215.66,-223.86 475.84,-335.79 780.58,-335.79 220.34,0 420.75,59.78 601.25,179.32l-242.61 277.77c-105.48,-63.28 -225.03,-94.93 -358.64,-94.93z"/>
  <g>
   <polygon id="_5" fill="none" fill-rule="nonzero" stroke="white" stroke-width="120.68" stroke-miterlimit="22.9256" points="13718.27,2442.5 13718.27,157.04 14076.92,157.04 14076.92,2442.5 "/>
  </g>
  <g>
   <polygon id="_6" fill="none" fill-rule="nonzero" stroke="white" stroke-width="120.68" stroke-miterlimit="22.9256" points="15375.63,2442.5 15016.99,2442.5 15969.85,157.04 16919.2,2442.5 16564.07,2442.5 15969.85,1025.52 "/>
  </g>
  <polygon id="_7" fill="none" fill-rule="nonzero" points="449.17,2442.5 90.53,2442.5 1043.39,157.04 1992.73,2442.5 1637.6,2442.5 1043.39,1025.52 "/>
  <path id="_8" fill="none" fill-rule="nonzero" d="M3825.9 519.19c-206.28,0 -382.09,76.19 -527.41,228.55 -145.34,152.36 -218,335.2 -218,548.51 0,215.66 72.66,400.84 218,555.54 145.33,154.71 321.13,232.07 527.41,232.07 119.54,0 234.99,-30.47 346.33,-91.43 111.35,-60.95 203.35,-145.33 276.01,-253.15l80.88 -116.04 -397.32 -348.09 235.58 -270.75 559.06 488.74c-77.35,285.97 -216.24,515.7 -416.65,689.15 -200.42,173.46 -428.37,260.2 -683.87,260.2 -304.74,0 -564.92,-111.93 -780.58,-335.79 -215.66,-223.86 -323.48,-494.01 -323.48,-810.46 0,-314.11 107.82,-582.5 323.48,-805.18 215.66,-222.69 475.84,-334.03 780.58,-334.03 215.65,0 416.07,59.78 601.25,179.32l-242.61 274.26c-107.82,-60.95 -227.38,-91.43 -358.64,-91.43z"/>
  <polygon id="_9" fill="none" fill-rule="nonzero" points="6253.29,515.69 6253.29,1120.45 6995.18,1120.45 6995.18,1479.09 6253.29,1479.09 6253.29,2083.86 7297.56,2083.86 7297.56,2442.5 5894.64,2442.5 5894.64,157.04 7297.56,157.04 7297.56,515.69 "/>
  <polygon id="_10" fill="none" fill-rule="nonzero" points="9999.2,2438.98 8687.7,1074.74 8687.7,2442.5 8329.06,2442.5 8329.06,157.04 9640.56,1531.83 9640.56,157.04 9999.2,157.04 "/>
  <path id="_11" fill="none" fill-rule="nonzero" d="M12138.27 519.19c-206.28,0 -382.09,76.19 -527.41,228.55 -145.34,152.36 -218,335.2 -218,548.51 0,218 72.66,403.77 218,557.3 145.33,153.54 321.13,230.31 527.41,230.31 128.92,0 248.47,-31.65 358.64,-94.93l242.61 274.25c-180.5,119.54 -380.91,179.32 -601.25,179.32 -304.74,0 -564.92,-111.34 -780.58,-334.03 -215.66,-222.69 -323.48,-491.08 -323.48,-805.18 0,-316.44 107.82,-586.6 323.48,-810.46 215.66,-223.86 475.84,-335.79 780.58,-335.79 220.34,0 420.75,59.78 601.25,179.32l-242.61 277.77c-105.48,-63.28 -225.03,-94.93 -358.64,-94.93z"/>
  <polygon id="_12" fill="white" fill-rule="nonzero" points="13718.27,2442.5 13718.27,157.04 14076.92,157.04 14076.92,2442.5 "/>
  <polygon id="_13" fill="white" fill-rule="nonzero" points="15375.63,2442.5 15016.99,2442.5 15969.85,157.04 16919.2,2442.5 16564.07,2442.5 15969.85,1025.52 "/>
  <polygon id="_14" fill="none" fill-rule="nonzero" stroke="white" stroke-width="120.68" stroke-miterlimit="22.9256" points="449.17,2442.5 90.53,2442.5 1043.39,157.04 1992.73,2442.5 1637.6,2442.5 1043.39,1025.52 "/>
  <path id="_15" fill="none" fill-rule="nonzero" stroke="white" stroke-width="120.68" stroke-miterlimit="22.9256" d="M3825.9 519.19c-206.28,0 -382.09,76.19 -527.41,228.55 -145.34,152.36 -218,335.2 -218,548.51 0,215.66 72.66,400.84 218,555.54 145.33,154.71 321.13,232.07 527.41,232.07 119.54,0 234.99,-30.47 346.33,-91.43 111.35,-60.95 203.35,-145.33 276.01,-253.15l80.88 -116.04 -397.32 -348.09 235.58 -270.75 559.06 488.74c-77.35,285.97 -216.24,515.7 -416.65,689.15 -200.42,173.46 -428.37,260.2 -683.87,260.2 -304.74,0 -564.92,-111.93 -780.58,-335.79 -215.66,-223.86 -323.48,-494.01 -323.48,-810.46 0,-314.11 107.82,-582.5 323.48,-805.18 215.66,-222.69 475.84,-334.03 780.58,-334.03 215.65,0 416.07,59.78 601.25,179.32l-242.61 274.26c-107.82,-60.95 -227.38,-91.43 -358.64,-91.43z"/>
  <polygon id="_16" fill="none" fill-rule="nonzero" stroke="white" stroke-width="120.68" stroke-miterlimit="22.9256" points="6253.29,515.69 6253.29,1120.45 6995.18,1120.45 6995.18,1479.09 6253.29,1479.09 6253.29,2083.86 7297.56,2083.86 7297.56,2442.5 5894.64,2442.5 5894.64,157.04 7297.56,157.04 7297.56,515.69 "/>
  <polygon id="_17" fill="none" fill-rule="nonzero" stroke="white" stroke-width="120.68" stroke-miterlimit="22.9256" points="9999.2,2438.98 8687.7,1074.74 8687.7,2442.5 8329.06,2442.5 8329.06,157.04 9640.56,1531.83 9640.56,157.04 9999.2,157.04 "/>
  <path id="_18" fill="none" fill-rule="nonzero" stroke="white" stroke-width="120.68" stroke-miterlimit="22.9256" d="M12138.27 519.19c-206.28,0 -382.09,76.19 -527.41,228.55 -145.34,152.36 -218,335.2 -218,548.51 0,218 72.66,403.77 218,557.3 145.33,153.54 321.13,230.31 527.41,230.31 128.92,0 248.47,-31.65 358.64,-94.93l242.61 274.25c-180.5,119.54 -380.91,179.32 -601.25,179.32 -304.74,0 -564.92,-111.34 -780.58,-334.03 -215.66,-222.69 -323.48,-491.08 -323.48,-805.18 0,-316.44 107.82,-586.6 323.48,-810.46 215.66,-223.86 475.84,-335.79 780.58,-335.79 220.34,0 420.75,59.78 601.25,179.32l-242.61 277.77c-105.48,-63.28 -225.03,-94.93 -358.64,-94.93z"/>
  <polygon id="_19" fill="none" fill-rule="nonzero" points="13718.27,2442.5 13718.27,157.04 14076.92,157.04 14076.92,2442.5 "/>
  <polygon id="_20" fill="none" fill-rule="nonzero" points="15375.63,2442.5 15016.99,2442.5 15969.85,157.04 16919.2,2442.5 16564.07,2442.5 15969.85,1025.52 "/>
 </g>
</svg>
